<svg role="img" viewBox="0 0 24 24" xmlns="http://www.w3.org/2000/svg">
  <title>Avid Pro Tools</title>
  <path fill="#fff" d="M12 0C5.372 0 0 5.372 0 12c0 6.627 5.372 12 12 12s12-5.373 12-12c0-6.628-5.372-12-12-12zm0 22.182A10.182 10.182 0 1 1 12 1.818c5.624 0 10.182 4.558 10.182 10.182S17.624 22.182 12 22.182zm-2.41-5.45c-2.017-1.056-3.287-3.102-3.287-5.168 0-2.07 1.27-4.115 3.287-5.171C10.104 3.944 10.51 3.818 12 3.818c1.49 0 1.895.126 2.41.575 2.017 1.056 3.287 3.101 3.287 5.171 0 2.066-1.27 4.112-3.287 5.168-.515.45-.92.576-2.41.576-1.49 0-1.896-.126-2.41-.576zm2.41-7.731a2.563 2.563 0 1 0 0 5.126 2.563 2.563 0 0 0 0-5.126z"/>
</svg>
